<svg xmlns="http://www.w3.org/2000/svg" xmlns:xlink="http://www.w3.org/1999/xlink" viewBox="0 0 366.23 141.74"><defs><style>.cls-1{fill:url(#未命名漸層_5);}.cls-2{fill:url(#未命名漸層_5-2);}.cls-3{fill:url(#未命名漸層_5-3);}.cls-4{fill:url(#未命名漸層_5-4);}.cls-5{fill:url(#未命名漸層_5-5);}.cls-6{fill:url(#未命名漸層_10);}.cls-7{fill:url(#未命名漸層_10-2);}.cls-8{fill:url(#未命名漸層_10-3);}</style><linearGradient id="未命名漸層_5" x1="102.16" y1="-8.38" x2="115.75" y2="51.8" gradientUnits="userSpaceOnUse"><stop offset="0.31" stop-color="#254355"/><stop offset="1" stop-color="#289489"/></linearGradient><linearGradient id="未命名漸層_5-2" x1="20.06" y1="4.79" x2="53.04" y2="150.76" xlink:href="#未命名漸層_5"/><linearGradient id="未命名漸層_5-3" x1="116.25" y1="32.03" x2="143.37" y2="152.06" xlink:href="#未命名漸層_5"/><linearGradient id="未命名漸層_5-4" x1="153.15" y1="130.21" x2="157.47" y2="149.3" xlink:href="#未命名漸層_5"/><linearGradient id="未命名漸層_5-5" x1="127.1" y1="127" x2="129.62" y2="138.17" xlink:href="#未命名漸層_5"/><linearGradient id="未命名漸層_10" x1="232.67" y1="128.02" x2="232.67" y2="65.53" gradientUnits="userSpaceOnUse"><stop offset="0.31" stop-color="#dd694d"/><stop offset="1" stop-color="#ec9c60"/></linearGradient><linearGradient id="未命名漸層_10-2" x1="299.54" y1="110.49" x2="299.54" y2="71.84" xlink:href="#未命名漸層_10"/><linearGradient id="未命名漸層_10-3" x1="349.37" y1="110.49" x2="349.37" y2="76.77" xlink:href="#未命名漸層_10"/></defs><g id="圖層_2" data-name="圖層 2"><g id="圖層_1-2" data-name="圖層 1"><path class="cls-1" d="M83.81,54.22a117.1,117.1,0,0,0,10.53-18.6h61.43A11.79,11.79,0,0,0,144,23.83H98.06l4.71-15.57A6.4,6.4,0,1,0,90.42,4.9Q84.26,30.68,72.86,46.38a6.73,6.73,0,0,0,11,7.84Z"/><path class="cls-2" d="M64.37,57.34H45.93V38.72H74.48A11.79,11.79,0,0,0,62.69,26.93H50.9L51,22.54a6.24,6.24,0,1,0-12.48,0l0,4.41H28.56A11.79,11.79,0,0,0,16.77,38.72H33.52V71c0,23.08-1.69,35.19-6.58,42.46-3.94,5.88-14.54,2.19-21.71,3.26-2.87.43-5.23.8-5.23,5.2a21.75,21.75,0,0,0,.73,5.53c2.47,9.25,14.12,12.27,22.35,6.41,4-2.84,14.39,1.85,19.57-6,6.47-9.85,2.83-23.38,3.28-41.94V69.13H56a4.25,4.25,0,0,1,4.26,4.25v47.1a8.84,8.84,0,0,1-8.85,8.84H46.55a14.86,14.86,0,0,0,14.54,11.8,15.58,15.58,0,0,0,3.4-.35c4.78-1.05,7.28-3.37,8-7.14a11.31,11.31,0,0,0,.16-2v-66A8.25,8.25,0,0,0,64.37,57.34Z"/><path class="cls-3" d="M139,136.24h47.49c-1.91-3.26-5.47-6.54-9.92-9.78-7.64-.32-10.26,3.51-10.38,3.7a1.53,1.53,0,0,1-1.27.69,1.48,1.48,0,0,1-.8-.23,1.5,1.5,0,0,1-.48-2.05c.14-.22,2.53-3.94,8.89-4.92q-1.62-1.07-3.33-2.13c-8.37,1-10.26,5.66-10.29,5.71a1.49,1.49,0,0,1-1.4,1,1.42,1.42,0,0,1-.53-.1,1.5,1.5,0,0,1-.87-1.93c.1-.26,2-5,9.27-7l-2.44-1.44c-9.55,1.49-11.1,6.82-11.17,7.06a1.51,1.51,0,0,1-1.45,1.12,1.55,1.55,0,0,1-.37,0,1.5,1.5,0,0,1-1.09-1.8c.07-.29,1.58-6,10.23-8.56-13.34-7.61-26.68-14.66-28.76-20.35l20.79-17.74a5.5,5.5,0,0,0,.2-8.17h0a5.49,5.49,0,0,0-7.25-.24L126.61,83.4q-4.35-18.62-4.35-23L145.84,48s-5.38-11.54-22-2.53a242.25,242.25,0,0,1-36,15.58A11,11,0,0,0,81.31,76L93.1,71.61v63.92a6.21,6.21,0,1,0,12.41,0V67.27l6.2-2.48c2.3,27.62,7.05,43.14,9.8,61.71C124.46,126,134.05,125.39,139,136.24Z"/><path class="cls-4" d="M138,139.24H123c.06.82.13,1.65.18,2.5l64.87-.31a7.83,7.83,0,0,0-.27-2.19Z"/><path class="cls-5" d="M121.93,129.46c.29,2.2.56,4.45.79,6.78h12.93A12.58,12.58,0,0,0,121.93,129.46Z"/><path class="cls-6" d="M263.87,87.75l-5,43.28a11.74,11.74,0,0,1-11.66,10.38h0a11.71,11.71,0,0,1-11.58-9.79l-.09-.55a3.11,3.11,0,0,0-6.15.05l-.06.43A11.47,11.47,0,0,1,218,141.41h0a11.47,11.47,0,0,1-11.4-10.14l-5.09-43.75a7.7,7.7,0,0,1,7.66-8.6h0A7.7,7.7,0,0,1,216.81,86L218,100.72l.23,2.94a1.47,1.47,0,0,0,2.92,0q.78-7.61,1.92-16.52a9.44,9.44,0,0,1,9.35-8.26h0a9.42,9.42,0,0,1,9.4,8.62q.41,4.75,1,12l.36,4.76a1.47,1.47,0,0,0,2.92,0q.9-9.33,2.09-18.47A7.94,7.94,0,0,1,256,78.92h0A7.93,7.93,0,0,1,263.87,87.75Z"/><path class="cls-7" d="M312.55,90.77l6.22,41.83a8,8,0,0,1-7.88,9.14h0a8,8,0,0,1-7.94-7.35l-.21-2.72a1.27,1.27,0,0,0-1.26-1.17H298a1.27,1.27,0,0,0-1.26,1.16l-.23,2.62a8.17,8.17,0,0,1-8.13,7.46h0a8.16,8.16,0,0,1-8.09-9.24L285.79,91a13.52,13.52,0,0,1,13.4-11.74h0A13.51,13.51,0,0,1,312.55,90.77Zm-10.42,27.82q-.76-6.7-1.53-15.34a1.1,1.1,0,0,0-2.19,0q-1.25,9.72-1.71,15.4a.75.75,0,0,0,.76.82h3.91A.76.76,0,0,0,302.13,118.59Z"/><path class="cls-8" d="M365.93,88.14l-9.2,31v15.09a7.53,7.53,0,0,1-7.53,7.53h0a7.53,7.53,0,0,1-7.53-7.53V119.12l-8.89-31.05a6.92,6.92,0,0,1,6.65-8.83h0a6.93,6.93,0,0,1,6.81,5.68q1.71,9.27,2.42,14.68a.55.55,0,0,0,1.09,0q1-6.58,2.73-14.85a6.92,6.92,0,0,1,6.78-5.52h0A6.92,6.92,0,0,1,365.93,88.14Z"/></g></g></svg>